<svg width="84" height="58" viewBox="0 0 84 58" fill="none" xmlns="http://www.w3.org/2000/svg">
<path fill-rule="evenodd" clip-rule="evenodd" d="M13.6848 20.3167L13.6849 20.3167C14.3746 20.305 16.0603 20.2762 16.7948 22.7576C17.3147 24.5141 18.1429 27.3912 19.2794 31.3891H19.7423C20.961 27.1743 21.7983 24.2971 22.254 22.7576C22.9872 20.2806 24.7544 20.3049 25.6114 20.3166C25.6659 20.3174 25.7168 20.3181 25.7635 20.3181L31.7804 20.3181V39.0537H25.6478V28.0125H25.2365L21.8179 39.0537H17.2038L13.7851 28.0043H13.3739V39.0537H7.24121V20.3181L13.5876 20.318C13.6173 20.3179 13.6498 20.3173 13.6848 20.3167ZM40.5869 20.3181V31.3675H41.0762L45.2347 22.2816C46.0419 20.4735 47.7624 20.3181 47.7624 20.3181H53.697V39.0537H47.4362V28.0043H46.947L42.87 37.0901C42.0628 38.8901 40.2608 39.0537 40.2608 39.0537H34.3262V20.3181H40.5869ZM68.6846 33.4727C71.7209 33.4727 74.4635 31.6986 75.3368 29.2214H56.1653V39.0537H62.1189V33.4727H68.6846Z" fill="#40A548"/>
<path d="M68.9721 20.3181H55.8535C56.1657 24.4893 59.7543 28.0601 63.4692 28.0601H75.7509C76.4596 24.5933 74.0198 20.3181 68.9721 20.3181Z" fill="#1291D0"/>
</svg>
