<svg width="84" height="58" viewBox="0 0 84 58" fill="none" xmlns="http://www.w3.org/2000/svg">
<path fill-rule="evenodd" clip-rule="evenodd" d="M38.2906 29.3844L38.6563 27.0526L37.8417 27.0335H33.9517L36.6551 9.82629C36.6635 9.77419 36.6907 9.72582 36.7305 9.69141C36.7705 9.657 36.8214 9.63812 36.8747 9.63812H43.4338C45.6115 9.63812 47.1143 10.0929 47.8987 10.9907C48.2666 11.4119 48.5008 11.8521 48.6143 12.3364C48.7331 12.8447 48.7351 13.4519 48.6192 14.1925L48.6107 14.2464V14.7211L48.9786 14.9303C49.2883 15.0953 49.5345 15.284 49.7233 15.5001C50.0379 15.8603 50.2414 16.3181 50.3274 16.8606C50.4163 17.4186 50.3869 18.0828 50.2414 18.8347C50.0735 19.6994 49.8022 20.4527 49.4357 21.0689C49.0988 21.6368 48.6695 22.1079 48.1596 22.4728C47.6729 22.8197 47.0947 23.0829 46.4409 23.2515C45.8072 23.417 45.0848 23.5006 44.2925 23.5006H43.7821C43.4172 23.5006 43.0627 23.6325 42.7843 23.8691C42.5052 24.1105 42.3207 24.4404 42.2641 24.8012L42.2255 25.0112L41.5793 29.1213L41.5501 29.2721C41.5423 29.3199 41.529 29.3437 41.5094 29.3598C41.492 29.3745 41.4669 29.3844 41.4424 29.3844H38.2906Z" fill="#28356A"/>
<path fill-rule="evenodd" clip-rule="evenodd" d="M49.3271 14.3013C49.3077 14.4269 49.2852 14.5553 49.2601 14.6873C48.3952 19.1455 45.4357 20.6857 41.6562 20.6857H39.7317C39.2695 20.6857 38.8799 21.0225 38.808 21.4803L37.5436 29.5311C37.4968 29.8317 37.7276 30.1025 38.0296 30.1025H41.4429C41.847 30.1025 42.1903 29.8077 42.254 29.4076L42.2875 29.2336L42.9301 25.1396L42.9715 24.9151C43.0343 24.5136 43.3785 24.2187 43.7826 24.2187H44.293C47.5999 24.2187 50.1888 22.871 50.9454 18.9707C51.2614 17.3415 51.0978 15.9811 50.2614 15.0243C50.0084 14.7358 49.6944 14.4963 49.3271 14.3013Z" fill="#298FC2"/>
<path fill-rule="evenodd" clip-rule="evenodd" d="M48.422 13.9391C48.2898 13.9004 48.1535 13.8654 48.0136 13.8337C47.873 13.8028 47.729 13.7755 47.5807 13.7515C47.0619 13.6674 46.4932 13.6274 45.8843 13.6274H40.7432C40.6165 13.6274 40.4962 13.6561 40.3887 13.7081C40.1515 13.8225 39.9754 14.0478 39.9327 14.3237L38.839 21.2775L38.8076 21.4802C38.8795 21.0225 39.2691 20.6857 39.7314 20.6857H41.6558C45.4353 20.6857 48.3948 19.1447 49.2597 14.6872C49.2856 14.5553 49.3073 14.4269 49.3267 14.3013C49.1079 14.1847 48.8709 14.085 48.6157 14C48.5526 13.979 48.4876 13.9588 48.422 13.9391Z" fill="#22284F"/>
<path fill-rule="evenodd" clip-rule="evenodd" d="M39.9328 14.3237C39.9755 14.0478 40.1516 13.8225 40.3888 13.7089C40.4971 13.6567 40.6166 13.628 40.7433 13.628H45.8844C46.4934 13.628 47.062 13.6682 47.5808 13.7523C47.7291 13.7761 47.8731 13.8036 48.0137 13.8345C48.1536 13.866 48.2899 13.9012 48.4221 13.9397C48.4877 13.9594 48.5528 13.9798 48.6164 14.0001C48.8716 14.085 49.1088 14.1855 49.3276 14.3013C49.585 12.6538 49.3255 11.532 48.4382 10.5163C47.4598 9.39785 45.6942 8.91927 43.4348 8.91927H36.8755C36.414 8.91927 36.0203 9.25608 35.949 9.71461L33.217 27.0988C33.1631 27.4427 33.4273 27.753 33.7728 27.753H37.8223L39.9328 14.3237Z" fill="#28356A"/>
<path fill-rule="evenodd" clip-rule="evenodd" d="M18.9648 34.1172H14.1824C13.8551 34.1172 13.5768 34.3559 13.5257 34.6803L11.5914 46.9906C11.553 47.2336 11.7405 47.4525 11.9859 47.4525H14.269C14.5963 47.4525 14.8746 47.214 14.9258 46.889L15.4474 43.5686C15.4977 43.2435 15.7766 43.0048 16.1033 43.0048H17.6172C20.7675 43.0048 22.5855 41.4745 23.0605 38.4421C23.2744 37.1153 23.0695 36.073 22.4506 35.3429C21.7709 34.5413 20.5653 34.1172 18.9648 34.1172ZM19.5163 38.6138C19.2548 40.3368 17.9436 40.3368 16.6759 40.3368H15.9542L16.4605 37.1189C16.4907 36.9244 16.6583 36.7813 16.8542 36.7813H17.185C18.0486 36.7813 18.8633 36.7813 19.2842 37.2755C19.5353 37.5703 19.6121 38.0085 19.5163 38.6138Z" fill="#28356A"/>
<path fill-rule="evenodd" clip-rule="evenodd" d="M33.3821 38.4649H31.092C30.8969 38.4649 30.7283 38.608 30.6983 38.8025L30.5968 39.4455L30.4368 39.2125C29.9411 38.4901 28.8354 38.2486 27.732 38.2486C25.2012 38.2486 23.0397 40.1728 22.6188 42.8718C22.4 44.2181 22.711 45.5056 23.472 46.4034C24.1699 47.2289 25.1684 47.5729 26.3564 47.5729C28.3956 47.5729 29.5262 46.2567 29.5262 46.2567L29.4242 46.8956C29.3858 47.1398 29.5732 47.3588 29.8173 47.3588H31.88C32.2081 47.3588 32.485 47.1201 32.5368 46.7951L33.7745 38.9268C33.8136 38.6845 33.6268 38.4649 33.3821 38.4649ZM30.1898 42.9397C29.9689 44.2533 28.9305 45.1351 27.606 45.1351C26.9411 45.1351 26.4097 44.921 26.0683 44.5152C25.7298 44.1123 25.6013 43.5386 25.7088 42.8996C25.9153 41.5973 26.971 40.6866 28.2753 40.6866C28.9256 40.6866 29.4543 40.9037 29.8026 41.3127C30.1514 41.7263 30.2899 42.3035 30.1898 42.9397Z" fill="#28356A"/>
<path fill-rule="evenodd" clip-rule="evenodd" d="M45.4031 38.6617H43.1016C42.882 38.6617 42.6758 38.7713 42.5514 38.9545L39.3773 43.6478L38.0318 39.1376C37.9472 38.8554 37.6879 38.6617 37.3941 38.6617H35.1327C34.8577 38.6617 34.667 38.9313 34.7543 39.1911L37.2893 46.6585L34.9061 50.0357C34.7187 50.3017 34.9075 50.6675 35.2313 50.6675H37.5298C37.748 50.6675 37.9521 50.5607 38.0759 50.3812L45.7302 39.29C45.9135 39.0247 45.7253 38.6617 45.4031 38.6617Z" fill="#28356A"/>
<path fill-rule="evenodd" clip-rule="evenodd" d="M53.075 34.1172H48.292C47.9655 34.1172 47.6871 34.3559 47.636 34.6803L45.7018 46.9906C45.6634 47.2336 45.8508 47.4525 46.0949 47.4525H48.5494C48.7772 47.4525 48.9723 47.2856 49.0079 47.0581L49.5569 43.5686C49.6073 43.2435 49.8864 43.0048 50.2129 43.0048H51.7262C54.877 43.0048 56.6945 41.4745 57.1701 38.4421C57.3848 37.1153 57.1785 36.073 56.5596 35.3429C55.8805 34.5413 54.6757 34.1172 53.075 34.1172ZM53.6268 38.6138C53.3659 40.3368 52.0548 40.3368 50.7863 40.3368H50.0655L50.5724 37.1189C50.6024 36.9244 50.7689 36.7813 50.9653 36.7813H51.2962C52.159 36.7813 52.9744 36.7813 53.3953 37.2755C53.6464 37.5703 53.7226 38.0085 53.6268 38.6138Z" fill="#298FC2"/>
<path fill-rule="evenodd" clip-rule="evenodd" d="M67.4894 38.4649H65.2006C65.0042 38.4649 64.8371 38.608 64.8077 38.8025L64.7063 39.4455L64.5455 39.2125C64.0497 38.4901 62.9448 38.2486 61.8412 38.2486C59.3106 38.2486 57.1499 40.1728 56.729 42.8718C56.5108 44.2181 56.8205 45.5056 57.5812 46.4034C58.2807 47.2289 59.2777 47.5729 60.4658 47.5729C62.5049 47.5729 63.6356 46.2567 63.6356 46.2567L63.5336 46.8956C63.4952 47.1398 63.6824 47.3588 63.9281 47.3588H65.9902C66.3167 47.3588 66.5951 47.1201 66.6462 46.7951L67.8845 38.9268C67.9223 38.6845 67.7348 38.4649 67.4894 38.4649ZM64.2972 42.9397C64.0776 44.2533 63.0377 45.1351 61.7132 45.1351C61.0496 45.1351 60.5168 44.921 60.1754 44.5152C59.8372 44.1123 59.7098 43.5386 59.816 42.8996C60.0238 41.5973 61.0782 40.6866 62.3825 40.6866C63.0328 40.6866 63.5615 40.9037 63.9097 41.3127C64.2599 41.7263 64.3984 42.3035 64.2972 42.9397Z" fill="#298FC2"/>
<path fill-rule="evenodd" clip-rule="evenodd" d="M69.9986 34.4556L68.0358 46.9912C67.9974 47.2342 68.1846 47.4531 68.4287 47.4531H70.4021C70.7302 47.4531 71.0083 47.2146 71.0587 46.8896L72.9943 34.5798C73.0329 34.3368 72.8454 34.1172 72.6014 34.1172H70.3917C70.1966 34.1178 70.0288 34.2611 69.9986 34.4556Z" fill="#298FC2"/>
</svg>
