<svg width="84" height="58" viewBox="0 0 84 58" fill="none" xmlns="http://www.w3.org/2000/svg">
<path fill-rule="evenodd" clip-rule="evenodd" d="M28.9235 40.7574C29.3665 40.5274 30.1196 40.2254 30.9173 40.2254C32.7484 40.2254 33.7381 41.4616 33.7381 43.7619C33.7381 46.449 32.4093 47.7572 30.2677 47.7572C29.4846 47.7572 28.2736 47.5129 27.3873 47.0523V37.0204L28.9235 36.661V40.7574ZM28.909 46.5207C29.3812 46.722 29.8984 46.7505 30.2678 46.7505C31.3607 46.7505 32.1877 46.0896 32.1877 43.7619C32.1877 41.9359 31.5083 41.3467 30.5188 41.3467C29.9277 41.3467 29.4998 41.5048 28.909 41.821V46.5207ZM13.1785 40.4121H13.2819L15.2901 47.5847H16.8851L19.278 37.3937H17.5498L16.0434 44.9974H15.9405L13.8872 37.3937H12.5728L10.6529 44.9974H10.5494L8.89519 37.3937H7.24121L9.63389 47.5847H11.2286L13.1785 40.4121ZM25.8226 47.0955V46.0032C25.0103 46.4775 24.2721 46.7505 23.4746 46.7505C21.9533 46.7505 21.2298 45.9884 21.2298 44.2639H26.0441V43.7324C26.0441 41.3899 24.9068 40.2254 23.0611 40.2254C20.8458 40.2254 19.7085 41.8065 19.7085 43.9909C19.7085 46.2622 20.7275 47.7572 23.2084 47.7572C24.2721 47.7572 25.1581 47.4697 25.8226 47.0955ZM24.6411 43.3019H21.2597C21.4216 41.8646 22.1154 41.1888 23.0169 41.1888C23.8143 41.1888 24.5679 41.7921 24.6411 43.3019ZM40.5321 45.4286H40.458L37.1497 37.3937H35.3628V47.5847H36.6921V40.3694H36.8248L39.8381 47.5847H40.7829L43.796 40.1968H43.9292V47.5847H45.5241V37.3937H43.6925L40.5321 45.4286ZM47.149 43.9909C47.149 41.4756 48.5668 40.2254 50.5162 40.2254C52.4659 40.2254 53.884 41.4756 53.884 43.9909C53.884 46.449 52.5398 47.7572 50.5162 47.7572C48.4926 47.7572 47.149 46.449 47.149 43.9909ZM52.3328 43.9911C52.3328 42.051 51.5202 41.232 50.5161 41.232C49.5413 41.232 48.6994 42.051 48.6994 43.9911C48.6994 45.9609 49.4679 46.7507 50.5161 46.7507C51.5646 46.7507 52.3328 45.9609 52.3328 43.9911ZM59.0519 40.2254C57.3543 40.2254 55.9509 40.9008 55.2864 41.289V47.5846H56.8225V41.8927C57.2802 41.6344 58.0335 41.3751 58.6246 41.3751C59.3777 41.3751 59.9531 41.5765 59.9531 42.712V47.5846H61.489V42.381C61.489 40.9008 60.825 40.2254 59.0519 40.2254ZM68.9767 46.0032V47.0955C68.3124 47.4697 67.4266 47.7572 66.3627 47.7572C63.882 47.7572 62.8628 46.2622 62.8628 43.9909C62.8628 41.8065 64.0004 40.2254 66.2154 40.2254C68.0619 40.2254 69.1995 41.3899 69.1995 43.7324V44.2639H64.3846C64.3846 45.9884 65.1081 46.7505 66.6292 46.7505C67.4266 46.7505 68.1651 46.4775 68.9767 46.0032ZM64.414 43.3019H67.7959C67.7225 41.7921 66.9686 41.1888 66.1712 41.1888C65.27 41.1888 64.5767 41.8646 64.414 43.3019ZM76.5247 40.4697H74.9444L73.2601 45.7586H73.1721L71.2817 40.4697H69.657L72.4927 47.6562C72.1377 48.7196 71.5181 49.4964 70.5137 49.4964V50.6744C72.2113 50.6744 73.1125 49.64 73.8512 47.6562L76.5247 40.4697Z" fill="#0068A3"/>
<path fill-rule="evenodd" clip-rule="evenodd" d="M40.8925 7.26706C42.9249 7.26706 44.8498 7.72767 46.5641 8.54544C46.8334 8.66975 47.1019 8.80651 47.3712 8.95751L46.1796 9.99542L44.3893 8.19388L41.3676 10.8167L39.5728 8.91048L33.944 13.8481L37.5526 17.7183L36.1345 18.9322L39.6888 22.8082L38.2791 24.0193L43.358 29.521L46.3729 26.8198L48.9795 29.7144C48.461 30.1067 47.8963 30.4758 47.2741 30.8169C45.3892 31.8629 43.2107 32.4618 40.8925 32.4618C33.763 32.4618 27.9482 26.8023 27.9482 19.8648C27.9482 12.9259 33.763 7.26706 40.8925 7.26706ZM38.5334 19.0684L41.6115 16.3708L44.3832 19.3671L41.3053 22.0637L38.5334 19.0684ZM43.8006 21.5477L40.7223 24.2445L43.4945 27.2408L46.5726 24.5432L43.8006 21.5477ZM36.331 13.9528L39.4091 11.256L42.18 14.2515L39.1019 16.9484L36.331 13.9528ZM44.2881 10.4787L41.9795 12.5015L44.0579 14.7494L46.3665 12.7258L44.2881 10.4787ZM46.0812 21.7669L48.3906 19.7433L50.469 21.9909L48.1604 24.014L46.0812 21.7669ZM50.4202 24.2811L48.1121 26.305L50.1906 28.5513L52.4991 26.5282L50.4202 24.2811ZM49.0418 15.9041L50.5809 14.5553L51.9663 16.0534L50.4281 17.4019L49.0418 15.9041ZM48.6146 10.1052L47.0756 11.4538L48.461 12.9519L50.0003 11.6033L48.6146 10.1052ZM51.0094 20.3542L52.5485 19.0054L53.9342 20.5032L52.3951 21.852L51.0094 20.3542ZM46.4156 14.9958L44.1073 17.0197L46.1863 19.2661L48.494 17.2429L46.4156 14.9958Z" fill="#0068A3"/>
</svg>
