<svg width="84" height="58" viewBox="0 0 84 58" fill="none" xmlns="http://www.w3.org/2000/svg">
<path d="M39.4146 36.4301H42.1449V31.343H45.0298C48.5109 31.343 50.3802 29.2552 50.3802 26.3587C50.3802 23.4843 48.533 21.3745 45.0666 21.3745H39.4146V36.4301ZM42.1449 29.1008V23.6534H44.6472C46.6931 23.6534 47.5983 24.7561 47.5983 26.3587C47.5983 27.9613 46.6931 29.1008 44.6619 29.1008H42.1449Z" fill="black"/>
<path d="M53.0075 36.4301L54.2513 32.7177H59.9181L61.1692 36.4301H64.0836L58.77 21.3745H55.3994L50.0932 36.4301H53.0075ZM54.9873 30.527L57.0258 24.4621H57.1436L59.1822 30.527H54.9873Z" fill="black"/>
<path d="M63.5004 21.3745L68.9832 30.8137V36.4301H71.7062V30.8137L77.189 21.3745H74.1054L70.4183 28.0348H70.2711L66.584 21.3745H63.5004Z" fill="black"/>
<ellipse cx="19.8255" cy="28.8385" rx="12.8255" ry="12.8228" fill="#FC3F1D"/>
<path d="M24.8182 36.3751H22.1758V23.2795H20.9958C18.8353 23.2795 17.7052 24.3611 17.7052 25.9752C17.7052 27.8056 18.4863 28.6542 20.0984 29.7358L21.4279 30.6344L17.6055 36.3751H14.7637L18.2038 31.25C16.2262 29.8357 15.1127 28.4545 15.1127 26.125C15.1127 23.213 17.1402 21.2328 20.9792 21.2328H24.8016V36.3751H24.8182Z" fill="white"/>
</svg>
