<svg width="30" height="30" viewBox="0 0 30 30" fill="none" xmlns="http://www.w3.org/2000/svg">
<path d="M28 7.67872C26.625 5.3751 24.875 3.45542 22.5 2.04766C20.25 0.639893 17.75 0 15 0C12.25 0 9.75 0.639893 7.5 2.04766C5.125 3.45542 3.375 5.24712 2 7.67872C0.625 9.98233 0 12.5419 0 15.3574C0 18.6849 1 21.7564 2.875 24.4439C4.75 27.1315 7.25 28.9232 10.25 29.947C10.625 30.075 10.875 29.947 11 29.819C11.25 29.691 11.25 29.4351 11.25 29.1791C11.25 29.1791 11.25 28.7952 11.25 28.1553C11.25 27.5154 11.25 26.8755 11.25 26.3636L10.75 26.4916C10.5 26.4916 10.125 26.6195 9.625 26.6195C9.25 26.6195 8.75 26.6195 8.25 26.4916C7.75 26.3636 7.375 26.2356 7 25.8517C6.625 25.5957 6.25 25.0838 6.125 24.5719L5.875 24.06C5.75 23.804 5.5 23.4201 5.25 23.0361C5 22.6522 4.625 22.3963 4.375 22.2683L4.25 22.1403C4.125 22.0123 4.125 22.0123 4 21.8843C3.875 21.7564 3.875 21.7564 3.875 21.6284C3.875 21.5004 3.875 21.5004 4 21.3724C4.125 21.3724 4.25 21.2444 4.625 21.2444H5C5.25 21.2444 5.625 21.5004 6 21.7564C6.375 22.0123 6.75 22.3963 7 22.7802C7.25 23.2921 7.625 23.804 8.125 24.06C8.5 24.3159 9 24.4439 9.375 24.4439C9.75 24.4439 10.125 24.4439 10.5 24.3159C10.75 24.4439 11 24.3159 11.25 24.188C11.375 23.2921 11.625 22.6522 12.25 22.1403C11.5 22.0123 10.875 21.8843 10.25 21.7564C9.625 21.6284 9 21.3724 8.375 20.9885C7.75 20.6046 7.25 20.2206 6.75 19.7087C6.375 19.1968 6 18.4289 5.75 17.661C5.5 16.7652 5.375 15.7414 5.375 14.7175C5.375 13.0538 5.875 11.774 6.875 10.6222C6.5 9.21446 6.5 7.80669 7.125 6.39893C7.5 6.27095 8 6.27095 8.75 6.65489C9.5 6.91084 10 7.1668 10.375 7.42276C10.75 7.55074 11 7.80669 11.25 7.93467C12.5 7.55074 13.75 7.42276 15 7.42276C16.25 7.42276 17.5 7.55074 18.75 7.93467L19.5 7.42276C20 7.1668 20.625 6.78287 21.25 6.52691C22 6.27095 22.5 6.14297 22.875 6.27095C23.5 7.80669 23.5 9.08648 23 10.3663C24 11.5181 24.5 12.9258 24.5 14.4616C24.5 15.6134 24.375 16.6372 24.125 17.5331C23.875 18.4289 23.5 19.0688 23.125 19.5807C22.75 20.0926 22.125 20.6046 21.5 20.8605C20.875 21.2444 20.25 21.5004 19.625 21.6284C19 21.7564 18.375 21.8843 17.625 22.0123C18.25 22.6522 18.625 23.5481 18.625 24.8278V29.0511C18.625 29.3071 18.75 29.4351 18.875 29.691C19 29.819 19.25 29.947 19.625 29.819C22.625 28.7952 25.125 27.0035 27 24.3159C29 21.7564 30 18.6849 30 15.3574C30 12.5419 29.375 9.98233 28 7.67872Z" fill="black"/>
</svg>
