<svg width="35" height="30" viewBox="0 0 35 30" fill="none" xmlns="http://www.w3.org/2000/svg">
<path d="M32.1395 1.89111C31.1922 1.07896 28.5524 0 17.4918 0C5.63903 0 3.87991 1.23905 3.31502 1.64512C0.311398 3.79523 0.026223 13.3106 0 15.2395C0.0360566 17.7879 0.381325 26.2672 3.31283 28.364C3.87554 28.7688 5.62482 30 17.4907 30C28.559 30 31.1955 28.9262 32.1384 28.1167C34.6984 25.9223 34.9924 18.3683 35 15.2056C34.9934 12.6625 34.7695 4.14794 32.1384 1.89111H32.1395ZM30.8633 26.0056C30.482 26.3323 28.2957 27.397 17.4907 27.397C7.04523 27.397 4.85343 26.4312 4.43933 26.1332C3.38495 25.3796 2.27156 21.38 2.18525 15.2317C2.27156 9.09761 3.39915 4.62039 4.44261 3.87462C4.8578 3.57657 7.05725 2.60304 17.4918 2.60304C28.288 2.60304 30.4798 3.67549 30.8644 4.00347C31.8008 4.80651 32.8016 9.03384 32.8169 15.2134C32.8016 21.4907 31.7942 25.2065 30.8644 26.0043L30.8633 26.0056ZM24.6168 13.9757L14.7854 6.78872C14.4478 6.54534 14.026 6.54013 13.684 6.7705C13.3398 7.00217 13.1279 7.43558 13.1279 7.90412V22.2794C13.1279 22.7479 13.3398 23.1826 13.684 23.413C13.8501 23.5249 14.0358 23.5809 14.2205 23.5809C14.415 23.5809 14.6117 23.5184 14.7843 23.3948L24.6157 16.2052C24.9435 15.9696 25.1434 15.5466 25.1434 15.0911C25.1434 14.6356 24.9435 14.2113 24.6157 13.9757H24.6168ZM15.3142 19.9744V10.2091L21.9388 15.0911L15.3142 19.9744Z" fill="black"/>
</svg>
